<svg xmlns="http://www.w3.org/2000/svg" version="1.1" xmlns:xlink="http://www.w3.org/1999/xlink" xmlns:svgjs="http://svgjs.dev/svgjs" width="1500" height="287" viewBox="0 0 1500 287"><g transform="matrix(1,0,0,1,-0.9795180631818994,-0.42948943661966155)"><svg viewBox="0 0 370 71" data-background-color="#ffffff" preserveAspectRatio="xMidYMid meet" height="287" width="1500" xmlns="http://www.w3.org/2000/svg" xmlns:xlink="http://www.w3.org/1999/xlink"><g id="tight-bounds" transform="matrix(1,0,0,1,0.24161445558488026,0.10624999999998863)"><svg viewBox="0 0 369.51677108883024 70.7875" height="70.7875" width="369.51677108883024"><g><svg viewBox="0 0 369.51677108883024 70.7875" height="70.7875" width="369.51677108883024"><g><svg viewBox="0 0 369.51677108883024 70.7875" height="70.7875" width="369.51677108883024"><g id="textblocktransform"><svg viewBox="0 0 369.51677108883024 70.7875" height="70.7875" width="369.51677108883024" id="textblock"><g><svg viewBox="0 0 369.51677108883024 70.7875" height="70.7875" width="369.51677108883024"><g><svg><g></g><g></g></svg></g><g><svg><g></g><g><svg></svg></g></svg></g><g id="text-0"><svg viewBox="0 0 369.51677108883024 70.7875" height="70.7875" width="369.51677108883024"><g><svg xmlns="http://www.w3.org/2000/svg" xmlns:xlink="http://www.w3.org/1999/xlink" version="1.1" x="0" y="0" viewBox="18.10799999999999 7.65 62.015484326991015 86.26299999999999" enable-background="new 0 0 100 100" xml:space="preserve" height="70.7875" width="50.88996553327471" class="icon-cg-0" data-fill-palette-color="accent" id="cg-0"><path d="M79.324 11.595c-0.622-1.494-1.598-2.501-2.899-2.994-1.113-0.421-2.269-0.379-3.203-0.208-0.375-0.451-0.933-0.743-1.565-0.743-1.128 0-2.041 0.914-2.041 2.044 0 1.128 0.913 2.042 2.041 2.042 1.061 0 1.92-0.808 2.023-1.839 0.68-0.105 1.465-0.119 2.196 0.156 0.886 0.335 1.563 1.054 2.015 2.138 2.45 5.881-2.213 25.742-3.304 30.178-0.459 0.156-0.794 0.578-0.794 1.089 0 6.705-4.353 12.16-9.703 12.16-5.35 0-9.702-5.455-9.702-12.16 0-0.441-0.255-0.812-0.617-1.009-1.054-4.275-5.79-24.34-3.323-30.258 0.451-1.081 1.126-1.8 2.009-2.136 0.748-0.285 1.549-0.267 2.236-0.155 0.105 1.03 0.964 1.836 2.022 1.836 1.128 0 2.042-0.914 2.042-2.042 0-1.13-0.914-2.044-2.042-2.044-0.635 0-1.194 0.295-1.568 0.749-0.94-0.175-2.107-0.223-3.232 0.203-1.302 0.492-2.277 1.499-2.9 2.993-2.684 6.438 2.153 26.831 3.25 31.241-0.119 0.183-0.206 0.389-0.206 0.624 0 7.402 4.636 13.515 10.593 14.375-0.877 4.979 1.448 9.848 1.565 10.087 3.586 7.042 4.017 13.732 1.183 18.356-2.098 3.422-5.825 5.307-10.496 5.307-11.216 0-19.231-8.836-19.317-8.931-0.134-0.148-1.857-2.04-4.036-4.028 0.573-1.03 0.901-2.213 0.901-3.473 0-3.954-3.218-7.17-7.173-7.17-3.954 0-7.171 3.216-7.171 7.17 0 3.955 3.217 7.173 7.171 7.173 1.856 0 3.544-0.715 4.819-1.875 1.593 1.462 3.011 2.935 3.755 3.757 0.352 0.396 8.769 9.705 21.051 9.705 5.512 0 9.944-2.279 12.481-6.418 3.268-5.33 2.869-12.85-1.085-20.612-0.023-0.049-2.226-4.646-1.292-8.99 6.204-0.569 11.112-6.816 11.112-14.433 0-0.16-0.033-0.312-0.091-0.45C77.029 39.015 82.045 18.125 79.324 11.595zM25.279 81.55c-3.526 0-6.395-2.87-6.395-6.397 0-3.525 2.869-6.395 6.395-6.395 3.527 0 6.397 2.869 6.397 6.395 0 1.059-0.263 2.057-0.72 2.937-0.366-0.323-0.741-0.646-1.121-0.96 0.263-0.606 0.413-1.273 0.413-1.977 0-2.742-2.224-4.967-4.969-4.967-2.743 0-4.967 2.225-4.967 4.967 0 2.745 2.224 4.969 4.967 4.969 1.197 0 2.281-0.44 3.139-1.146 0.37 0.308 0.737 0.63 1.102 0.954C28.389 80.934 26.907 81.55 25.279 81.55zM25.279 71.91c-1.788 0-3.243 1.454-3.243 3.242 0 1.789 1.455 3.245 3.243 3.245 0.644 0 1.24-0.194 1.746-0.519 0.143 0.105 0.287 0.214 0.431 0.325-0.615 0.441-1.364 0.707-2.177 0.707-2.072 0-3.757-1.687-3.757-3.759 0-2.071 1.685-3.756 3.757-3.756 2.072 0 3.758 1.685 3.758 3.756 0 0.413-0.083 0.804-0.207 1.177-0.145-0.111-0.289-0.221-0.434-0.327 0.075-0.272 0.127-0.554 0.127-0.85C28.523 73.364 27.068 71.91 25.279 71.91z" fill="#31c48d" data-fill-palette-color="accent"></path></svg></g><g transform="matrix(1,0,0,1,67.60246553327471,0)"><svg width="301.91430555555553" viewBox="3.61 -33.33 186.57999999999998 43.75" height="70.7875" data-palette-color="#31c48d"><path d="M8.92 0L3.61 0 3.61-32.29 18.37-13.44 32.88-32.29 32.88 0 27.36 0 27.36-10.35Q27.36-11.84 27.4-13.7 27.43-15.56 27.71-17.92L27.71-17.92Q26.63-16.11 25.63-14.76 24.62-13.4 23.78-12.26L23.78-12.26 18.26-4.72 12.53-12.26Q11.74-13.33 10.66-14.81 9.58-16.28 8.54-18.02L8.54-18.02Q8.82-15.56 8.87-13.72 8.92-11.88 8.92-10.35L8.92-10.35 8.92 0ZM49.58 0.63L49.58 0.63Q46.14 0.63 43.49-0.83 40.83-2.29 39.36-4.84 37.88-7.4 37.88-10.63L37.88-10.63Q37.88-13.75 39.32-16.18 40.76-18.61 43.23-20.03 45.69-21.46 48.68-21.46L48.68-21.46Q51.73-21.46 54.15-20.07 56.56-18.68 57.98-16.27 59.41-13.85 59.41-10.8L59.41-10.8 59.41-8.82 46.46-8.82Q45.59-8.82 44.75-8.92 43.92-9.03 43.09-9.17L43.09-9.17Q43.5-6.91 45.28-5.47 47.05-4.03 49.72-4.03L49.72-4.03Q51.7-4.03 53.3-4.84 54.89-5.66 55.94-6.91L55.94-6.91 57.19-1.81Q55.62-0.59 53.68 0.02 51.73 0.63 49.58 0.63ZM42.95-12.53L42.95-12.53Q44.72-12.88 46.46-12.88L46.46-12.88 50.94-12.88Q51.87-12.88 52.71-12.83 53.54-12.78 54.3-12.6L54.3-12.6Q53.78-14.62 52.27-15.83 50.76-17.05 48.64-17.05L48.64-17.05Q46.56-17.05 45.03-15.8 43.5-14.55 42.95-12.53ZM72.43 0.49L72.43 0.49Q69.54 0.49 67.18-0.99 64.82-2.47 63.42-4.95 62.01-7.43 62.01-10.42L62.01-10.42Q62.01-13.44 63.42-15.9 64.82-18.37 67.18-19.84 69.54-21.32 72.43-21.32L72.43-21.32Q74.2-21.32 75.71-20.78 77.22-20.24 78.43-19.24L78.43-19.24 78.43-33.33 83.92-33.33 83.92 0 79.13 0 79.13-2.22Q77.91-0.97 76.18-0.24 74.44 0.49 72.43 0.49ZM73.05-4.34L73.05-4.34Q74.72-4.34 76.05-5.17 77.39-6.01 78.19-7.38 78.99-8.75 78.99-10.42L78.99-10.42Q78.99-12.08 78.19-13.45 77.39-14.83 76.05-15.66 74.72-16.49 73.09-16.49L73.09-16.49Q71.42-16.49 70.08-15.66 68.75-14.83 67.95-13.45 67.15-12.08 67.15-10.42L67.15-10.42Q67.15-8.75 67.95-7.38 68.75-6.01 70.08-5.17 71.42-4.34 73.05-4.34ZM94.54 0L89.06 0 89.06-20.83 94.54-20.83 94.54 0ZM91.8-24.03L91.8-24.03Q90.51-24.03 89.63-24.91 88.74-25.8 88.74-27.08L88.74-27.08Q88.74-28.4 89.63-29.27 90.51-30.14 91.8-30.14L91.8-30.14Q93.12-30.14 93.99-29.27 94.85-28.4 94.85-27.08L94.85-27.08Q94.85-25.8 93.99-24.91 93.12-24.03 91.8-24.03ZM106.17 0.63L106.17 0.63Q104.19 0.63 102.11-0.05 100.02-0.73 98.77-1.98L98.77-1.98 100.16-7.26Q101.17-5.8 102.89-4.79 104.61-3.78 106.48-3.78L106.48-3.78Q107.84-3.78 108.48-4.34 109.12-4.9 109.12-5.73L109.12-5.73Q109.12-6.67 108.46-7.1 107.8-7.53 107.14-7.78L107.14-7.78 104.26-8.85Q103.36-9.24 102.14-9.88 100.93-10.52 100.04-11.72 99.16-12.92 99.16-14.86L99.16-14.86Q99.16-16.63 100.02-18.13 100.89-19.62 102.56-20.54 104.23-21.46 106.52-21.46L106.52-21.46Q108.6-21.46 110.51-20.75 112.42-20.03 113.39-18.99L113.39-18.99 112.07-13.85Q111-15.38 109.42-16.23 107.84-17.08 106.38-17.08L106.38-17.08Q105.2-17.08 104.59-16.55 103.98-16.01 103.98-15.28L103.98-15.28Q103.98-14.76 104.4-14.25 104.82-13.75 105.75-13.4L105.75-13.4 108.5-12.36Q109.57-11.98 110.86-11.3 112.14-10.63 113.06-9.41 113.98-8.19 113.98-6.08L113.98-6.08Q113.98-3.13 111.81-1.25 109.64 0.63 106.17 0.63ZM123.39 0L117.94 0 117.94-20.83 122.87-20.83 122.87-18.26Q123.98-19.83 125.66-20.64 127.35-21.46 129.26-21.46L129.26-21.46Q131.48-21.46 133.41-20.4 135.33-19.34 136.53-17.29 137.73-15.24 137.73-12.36L137.73-12.36 137.73 0 132.24 0 132.24-11.63Q132.24-13.54 131.1-15.03 129.95-16.53 127.83-16.53L127.83-16.53Q126.1-16.53 124.74-15.33 123.39-14.13 123.39-11.7L123.39-11.7 123.39 0ZM151.65 0.49L151.65 0.49Q148.8 0.49 146.44-0.99 144.08-2.47 142.68-4.95 141.27-7.43 141.27-10.42L141.27-10.42Q141.27-13.44 142.68-15.9 144.08-18.37 146.44-19.84 148.8-21.32 151.65-21.32L151.65-21.32Q153.7-21.32 155.44-20.59 157.17-19.86 158.39-18.58L158.39-18.58 158.39-20.83 163.18-20.83 163.18 0 158.39 0 158.39-2.29Q157.17-1.01 155.44-0.26 153.7 0.49 151.65 0.49ZM152.31-4.34L152.31-4.34Q153.98-4.34 155.31-5.17 156.65-6.01 157.45-7.38 158.25-8.75 158.25-10.42L158.25-10.42Q158.25-12.08 157.45-13.45 156.65-14.83 155.31-15.66 153.98-16.49 152.35-16.49L152.35-16.49Q150.68-16.49 149.34-15.66 148.01-14.83 147.21-13.45 146.41-12.08 146.41-10.42L146.41-10.42Q146.41-8.75 147.21-7.38 148.01-6.01 149.34-5.17 150.68-4.34 152.31-4.34ZM173.73 10.42L168.28 10.42 168.28-20.83 173.04-20.83 173.04-18.61Q174.32-19.9 176.02-20.61 177.73-21.32 179.74-21.32L179.74-21.32Q182.66-21.32 185.02-19.86 187.38-18.4 188.78-15.92 190.19-13.44 190.19-10.42L190.19-10.42Q190.19-7.43 188.78-4.95 187.38-2.47 185.02-0.99 182.66 0.49 179.74 0.49L179.74 0.49Q177.97 0.49 176.46-0.07 174.95-0.63 173.73-1.6L173.73-1.6 173.73 10.42ZM179.08-4.34L179.08-4.34Q180.75-4.34 182.08-5.17 183.42-6.01 184.22-7.38 185.02-8.75 185.02-10.42L185.02-10.42Q185.02-12.08 184.22-13.45 183.42-14.83 182.08-15.66 180.75-16.49 179.11-16.49L179.11-16.49Q177.45-16.49 176.11-15.66 174.77-14.83 173.98-13.45 173.18-12.08 173.18-10.42L173.18-10.42Q173.18-8.75 173.98-7.38 174.77-6.01 176.11-5.17 177.45-4.34 179.08-4.34Z" opacity="1" transform="matrix(1,0,0,1,0,0)" fill="#31c48d" class="wordmark-text-0" data-fill-palette-color="primary"></path></svg></g></svg></g></svg></g></svg></g></svg></g></svg></g><defs></defs></svg><rect width="369.51677108883024" height="70.7875" fill="none" stroke="none" visibility="hidden"></rect></g></svg></g></svg>